<?xml version="1.0" standalone="no"?>
<!DOCTYPE svg PUBLIC "-//W3C//DTD SVG 20010904//EN"
 "http://www.w3.org/TR/2001/REC-SVG-20010904/DTD/svg10.dtd">
<svg version="1.0" xmlns="http://www.w3.org/2000/svg"
 width="2400.000000pt" height="2400.000000pt" viewBox="0 0 2400.000000 2400.000000"
 preserveAspectRatio="xMidYMid meet">

<g transform="translate(0.000000,2400.000000) scale(0.100000,-0.100000)"
fill="#ffffff" stroke="none">
<path d="M5690 15896 c-511 -92 -1041 -380 -2100 -1141 -388 -279 -527 -390
-849 -679 -671 -602 -1529 -1523 -1653 -1773 -31 -64 -31 -160 -1 -218 49 -92
164 -165 261 -165 65 0 100 17 138 67 126 166 765 821 1029 1055 418 369 688
560 1216 856 651 365 1049 451 1232 268 103 -102 134 -259 116 -581 -27 -489
-120 -1122 -375 -2550 -179 -1000 -194 -1113 -176 -1279 17 -154 46 -256 108
-385 48 -98 67 -125 132 -190 152 -150 308 -185 497 -112 392 152 1105 1034
1865 2306 214 358 267 426 283 365 3 -12 1 -132 -5 -268 -16 -389 10 -813 62
-1016 38 -148 87 -209 194 -241 286 -86 625 5 1029 275 235 158 427 321 682
581 247 253 371 403 660 799 72 98 108 128 132 109 23 -20 13 -158 -31 -409
-57 -325 -77 -523 -83 -820 -9 -447 32 -768 143 -1105 263 -795 873 -1303
1784 -1485 278 -55 392 -65 775 -65 367 0 465 7 775 51 321 46 670 125 984
220 83 26 165 50 183 55 17 5 105 36 195 68 985 354 1887 879 2623 1524 102
90 382 365 486 479 l80 86 -213 -107 c-804 -406 -1945 -744 -2938 -870 -368
-47 -501 -55 -910 -55 -439 0 -597 13 -902 74 -952 191 -1513 689 -1673 1484
-34 169 -45 298 -45 517 0 484 80 876 384 1895 173 581 214 746 223 906 7 108
-10 175 -50 203 -123 86 -497 -194 -1167 -871 -439 -444 -656 -688 -1060
-1189 -518 -641 -729 -880 -856 -963 -53 -36 -75 -39 -94 -17 -15 19 -15 23
39 610 105 1139 128 1780 68 1962 -19 58 -47 56 -143 -13 -128 -92 -264 -213
-523 -469 -711 -700 -1197 -1306 -1811 -2256 -335 -516 -431 -659 -485 -716
-72 -77 -81 -69 -77 70 4 134 38 379 117 842 232 1356 289 1711 344 2145 166
1308 103 1994 -197 2126 -50 23 -317 29 -422 10z"/>
<path d="M15985 14953 c-11 -2 -76 -23 -145 -45 -626 -206 -1301 -640 -1904
-1227 -372 -362 -624 -657 -868 -1016 -387 -569 -659 -1214 -709 -1681 -10
-95 -10 -125 4 -207 55 -322 241 -523 567 -614 86 -24 326 -29 433 -9 418 79
908 429 1427 1020 l104 118 18 -92 c74 -389 281 -640 603 -731 111 -32 313
-32 430 -1 308 81 559 262 1095 785 555 543 667 663 725 778 39 77 32 109 -26
124 -31 8 -40 -3 -49 -55 -6 -33 -8 -35 -43 -33 -20 1 -64 16 -98 34 -48 24
-71 30 -97 25 -19 -3 -126 -57 -236 -120 -359 -204 -590 -306 -737 -322 -70
-8 -203 18 -270 52 -155 78 -171 290 -64 844 163 850 282 1277 494 1775 28 66
51 125 51 132 0 16 -69 6 -160 -24 -234 -76 -655 -377 -808 -576 -22 -29 -70
-117 -107 -197 -238 -517 -264 -588 -349 -945 -57 -244 -75 -295 -163 -468
-104 -203 -245 -364 -423 -482 -277 -185 -733 -312 -1015 -284 -216 22 -320
120 -319 304 1 131 54 282 175 498 341 612 948 1274 1514 1652 266 177 435
253 649 290 187 32 186 31 186 185 0 139 7 161 89 301 33 56 68 122 78 147 16
43 16 45 -2 58 -10 8 -21 13 -24 13 -3 -1 -15 -3 -26 -6z"/>
<path d="M22770 14641 c-192 -39 -386 -109 -591 -212 -142 -71 -205 -123 -396
-331 -323 -351 -610 -701 -993 -1213 -153 -205 -291 -382 -305 -394 l-27 -21
-29 20 c-95 68 -598 662 -875 1033 -164 219 -200 279 -352 582 -79 158 -133
253 -158 279 -36 37 -37 38 -95 31 -78 -9 -117 5 -195 71 -35 30 -75 59 -88
64 -52 19 -332 -60 -547 -155 -183 -80 -290 -150 -310 -203 -38 -99 331 -864
646 -1342 99 -150 152 -217 439 -555 536 -630 715 -870 716 -963 0 -58 -479
-709 -844 -1147 -265 -318 -427 -494 -826 -900 -511 -519 -590 -606 -605 -666
-6 -23 -2 -28 32 -45 156 -76 652 91 890 299 20 18 183 203 362 412 501 585
611 714 801 930 198 226 466 519 563 614 l65 64 34 -24 c18 -13 168 -127 333
-254 491 -377 690 -519 800 -571 63 -30 70 -30 100 1 23 22 25 32 25 115 0 87
9 126 34 142 16 11 103 9 153 -2 33 -8 51 -6 83 6 l40 16 -2 55 c-3 68 15 86
100 103 31 7 72 21 90 32 45 28 106 107 128 165 12 35 36 66 87 113 61 57 69
68 62 89 -19 61 -168 190 -635 551 -448 346 -594 471 -625 530 -24 46 16 124
203 400 282 417 684 926 1007 1276 82 87 229 260 327 384 241 303 370 459 463
558 l77 82 -39 -1 c-21 0 -76 -9 -123 -18z"/>
</g>
</svg>
